# xmcd
#
# Track frame offsets:
#	150
#	17017
#	47524
#	77311
#	92736
#	103739
#	127507
#	130564
#	144556
#	166615
#	179712
#	186566
#	199524
#	207498
#	220803
#	230568
#	249460
#	264822
#
# Disc length: 3790 seconds
#
# Revision: 1
# Processed by: cddbd v1.5.2PL0 Copyright (c) Steve Scherf et al.
# Submitted via: audiograbber 1.83.01
#
DISCID=eb0ecc12
DTITLE=Son House - Field Recordings Volume 17
DYEAR=2011
DGENRE=Blues
TTITLE0=Son House, Willie Brown, Fiddlin' Joe Martin, Leroy Williams - Levee Ca
TTITLE0=mp Blues
TTITLE1=Son House, Willie Brown, Fiddlin' Joe Martin, Leroy Williams - Governme
TTITLE1=nt Fleet Blues
TTITLE2=Son House, Willie Brown, Fiddlin' Joe Martin, Leroy Williams - Walking 
TTITLE2=Blues
TTITLE3=Son House - Shetland Pony Blues
TTITLE4=Son House, Fiddlin' Joe Martin, poss. Willie Brown - Camp Hollers
TTITLE5=Son House, Leroy Williams - Delta Blues
TTITLE6=Son House - Special Rider Blues (test)
TTITLE7=Son House - Special Rider Blues
TTITLE8=Son House - Low Down Dirty Dog
TTITLE9=Son House - Depot Blues
TTITLE10=Son House - Interview Demonstration of Concert Guitar Tuning
TTITLE11=Son House - American Defence
TTITLE12=Son House - Am I Right Or Wrong
TTITLE13=Son House - Walking Blues (Death Letter)
TTITLE14=Son House - County Farm Blues
TTITLE15=Son House - The Pony Blues
TTITLE16=Son House - The Jinx Blues (No. 1)
TTITLE17=Son House - The Jinx Blues (No. 2)
EXTD=
EXTT0=
EXTT1=
EXTT2=
EXTT3=
EXTT4=
EXTT5=
EXTT6=
EXTT7=
EXTT8=
EXTT9=
EXTT10=
EXTT11=
EXTT12=
EXTT13=
EXTT14=
EXTT15=
EXTT16=
EXTT17=
PLAYORDER=
